Light Narrow — SC 2.ufo
<glyph name="a.sc" format="1">
  <advance width="1126"/>
  <outline>
    <contour>
      <point x="679" y="1292" type="move" name="top"/>
    </contour>
    <contour>
      <point x="902" y="-121" type="move" name="ogonek"/>
    </contour>
    <contour>
      <point x="479" y="-121" type="move" name="bottom"/>
    </contour>
    <contour>
      <point x="-99" y="62" type="line"/>
      <point x="-105" y="0" type="line"/>
      <point x="300" y="0" type="line"/>
      <point x="305" y="62" type="line"/>
      <point x="150" y="84" type="line"/>
      <point x="595" y="1067" type="line"/>
      <point x="683" y="1245" type="line"/>
      <point x="644" y="1251" type="line"/>
      <point x="662" y="1076" type="line"/>
      <point x="815" y="82" type="line"/>
      <point x="665" y="62" type="line"/>
      <point x="661" y="0" type="line"/>
      <point x="1106" y="0" type="line"/>
      <point x="1110" y="62" type="line"/>
      <point x="971" y="86" type="line"/>
      <point x="759" y="1303" type="line"/>
      <point x="605" y="1303" type="line"/>
      <point x="19" y="82" type="line"/>
    </contour>
    <contour>
      <point x="244" y="474" type="line"/>
      <point x="225" y="386" type="line"/>
      <point x="799" y="386" type="line"/>
      <point x="800" y="474" type="line"/>
    </contour>
  </outline>
</glyph>
<glyph name="ae.sc" format="1">
  <advance width="1570"/>
  <outline>
    <contour>
      <point x="979" y="1292" type="move" name="top"/>
    </contour>
    <contour>
      <point x="583" y="62" type="line"/>
      <point x="574" y="0" type="line"/>
      <point x="1433" y="0" type="line"/>
      <point x="1493" y="270" type="line"/>
      <point x="1408" y="290" type="line"/>
      <point x="1325" y="102" type="line"/>
      <point x="849" y="84" type="line"/>
      <point x="916" y="620" type="line"/>
      <point x="1285" y="608" type="line"/>
      <point x="1299" y="732" type="line"/>
      <point x="924" y="712" type="line"/>
      <point x="990" y="1214" type="line"/>
      <point x="1372" y="1204" type="line"/>
      <point x="1400" y="1036" type="line"/>
      <point x="1487" y="1036" type="line"/>
      <point x="1497" y="1292" type="line"/>
      <point x="359" y="1292" type="line"/>
      <point x="349" y="1220" type="line"/>
      <point x="606" y="1204" type="line"/>
      <point x="7" y="82" type="line"/>
      <point x="-131" y="62" type="line"/>
      <point x="-141" y="0" type="line"/>
      <point x="333" y="0" type="line"/>
      <point x="338" y="62" type="line"/>
      <point x="153" y="84" type="line"/>
      <point x="317" y="416" type="line"/>
      <point x="736" y="416" type="line"/>
      <point x="696" y="82" type="line"/>
    </contour>
    <contour>
      <point x="363" y="504" type="line"/>
      <point x="717" y="1206" type="line"/>
      <point x="832" y="1202" type="line"/>
      <point x="745" y="504" type="line"/>
    </contour>
  </outline>
</glyph>
<glyph name="b.sc" format="1">
  <advance width="1090"/>
  <outline>
    <contour>
      <point x="632" y="1292" type="move" name="top"/>
    </contour>
    <contour>
      <point x="482" y="0" type="move" name="bottom"/>
    </contour>
    <contour>
      <point x="429" y="-12" type="curve"/>
      <point x="744" y="-12"/>
      <point x="999" y="108"/>
      <point x="998" y="418" type="curve"/>
      <point x="999" y="563"/>
      <point x="886" y="669"/>
      <point x="738" y="686" type="curve"/>
      <point x="909" y="732"/>
      <point x="1014" y="849"/>
      <point x="1013" y="1034" type="curve"/>
      <point x="1013" y="1175"/>
      <point x="914" y="1306"/>
      <point x="643" y="1306" type="curve"/>
      <point x="555" y="1306"/>
      <point x="476" y="1294"/>
      <point x="398" y="1292" type="curve"/>
      <point x="184" y="1292" type="line"/>
      <point x="177" y="1222" type="line"/>
      <point x="291" y="1204" type="line"/>
      <point x="139" y="84" type="line"/>
      <point x="15" y="62" type="line"/>
      <point x="8" y="0" type="line"/>
      <point x="199" y="0" type="line" smooth="yes"/>
      <point x="260" y="0"/>
      <point x="361" y="-12"/>
    </contour>
    <contour>
      <point x="461" y="75" type="curve"/>
      <point x="409" y="75"/>
      <point x="266" y="83"/>
      <point x="280" y="98" type="curve"/>
      <point x="280" y="17" type="line"/>
      <point x="451" y="1285" type="line"/>
      <point x="420" y="1208" type="line"/>
      <point x="429" y="1214"/>
      <point x="560" y="1224"/>
      <point x="607" y="1224" type="curve"/>
      <point x="789" y="1224"/>
      <point x="862" y="1152"/>
      <point x="863" y="1017" type="curve"/>
      <point x="864" y="800"/>
      <point x="719" y="715"/>
      <point x="557" y="715" type="curve"/>
      <point x="510" y="715"/>
      <point x="388" y="714"/>
      <point x="335" y="714" type="curve"/>
      <point x="323" y="621" type="line"/>
      <point x="364" y="622"/>
      <point x="485" y="623"/>
      <point x="573" y="623" type="curve"/>
      <point x="746" y="623"/>
      <point x="835" y="551"/>
      <point x="837" y="403" type="curve"/>
      <point x="839" y="160"/>
      <point x="680" y="75"/>
    </contour>
  </outline>
</glyph>
<glyph name="c.sc" format="1">
  <advance width="1043"/>
  <outline>
    <contour>
      <point x="652" y="1307" type="move" name="top"/>
    </contour>
    <contour>
      <point x="523" y="0" type="move" name="bottom"/>
    </contour>
    <contour>
      <point x="519" y="-14" type="curve"/>
      <point x="698" y="-14"/>
      <point x="833" y="41"/>
      <point x="900" y="66" type="curve"/>
      <point x="935" y="342" type="line"/>
      <point x="843" y="342" type="line"/>
      <point x="795" y="167"/>
      <point x="807" y="222"/>
      <point x="786" y="156" type="curve"/>
      <point x="737" y="98"/>
      <point x="623" y="74"/>
      <point x="545" y="74" type="curve"/>
      <point x="323" y="74"/>
      <point x="241" y="312"/>
      <point x="237" y="548" type="curve"/>
      <point x="233" y="846"/>
      <point x="376" y="1222"/>
      <point x="689" y="1222" type="curve"/>
      <point x="789" y="1222"/>
      <point x="840" y="1204"/>
      <point x="878" y="1180" type="curve"/>
      <point x="889" y="944" type="line"/>
      <point x="985" y="944" type="line"/>
      <point x="1038" y="1255" type="line"/>
      <point x="954" y="1281"/>
      <point x="866" y="1306"/>
      <point x="708" y="1306" type="curve"/>
      <point x="359" y="1306"/>
      <point x="67" y="1002"/>
      <point x="73" y="534" type="curve"/>
      <point x="75" y="266"/>
      <point x="197" y="-14"/>
    </contour>
  </outline>
</glyph>
<glyph name="d.sc" format="1">
  <advance width="1203"/>
  <outline>
    <contour>
      <point x="660" y="1292" type="move" name="top"/>
    </contour>
    <contour>
      <point x="491" y="0" type="move" name="bottom"/>
    </contour>
    <contour>
      <point x="473" y="-14" type="curve"/>
      <point x="907" y="-14"/>
      <point x="1138" y="334"/>
      <point x="1146" y="783" type="curve"/>
      <point x="1150" y="1090"/>
      <point x="1009" y="1306"/>
      <point x="662" y="1306" type="curve"/>
      <point x="577" y="1306"/>
      <point x="493" y="1294"/>
      <point x="414" y="1292" type="curve"/>
      <point x="185" y="1292" type="line"/>
      <point x="179" y="1222" type="line"/>
      <point x="291" y="1204" type="line"/>
      <point x="139" y="84" type="line"/>
      <point x="14" y="62" type="line"/>
      <point x="5" y="0" type="line"/>
      <point x="212" y="0" type="line" smooth="yes"/>
      <point x="303" y="0"/>
      <point x="405" y="-14"/>
    </contour>
    <contour>
      <point x="506" y="72" type="curve"/>
      <point x="445" y="72"/>
      <point x="311" y="83"/>
      <point x="261" y="103" type="curve"/>
      <point x="283" y="20" type="line"/>
      <point x="455" y="1280" type="line"/>
      <point x="414" y="1202" type="line"/>
      <point x="457" y="1209"/>
      <point x="552" y="1224"/>
      <point x="628" y="1224" type="curve"/>
      <point x="890" y="1224"/>
      <point x="993" y="1079"/>
      <point x="988" y="770" type="curve"/>
      <point x="983" y="438"/>
      <point x="834" y="73"/>
    </contour>
  </outline>
</glyph>
<glyph name="e.sc" format="1">
  <advance width="1045"/>
  <outline>
    <contour>
      <point x="618" y="1292" type="move" name="top"/>
    </contour>
    <contour>
      <point x="793" y="0" type="move" name="ogonek"/>
    </contour>
    <contour>
      <point x="489" y="0" type="move" name="bottom"/>
    </contour>
    <contour>
      <point x="979" y="1292" type="line"/>
      <point x="188" y="1292" type="line"/>
      <point x="179" y="1222" type="line"/>
      <point x="293" y="1204" type="line"/>
      <point x="140" y="82" type="line"/>
      <point x="14" y="62" type="line"/>
      <point x="5" y="0" type="line"/>
      <point x="894" y="0" type="line"/>
      <point x="970" y="282" type="line"/>
      <point x="885" y="305" type="line"/>
      <point x="788" y="104" type="line"/>
      <point x="293" y="87" type="line"/>
      <point x="366" y="623" type="line"/>
      <point x="766" y="609" type="line"/>
      <point x="776" y="725" type="line"/>
      <point x="379" y="718" type="line"/>
      <point x="449" y="1216" type="line"/>
      <point x="854" y="1205" type="line"/>
      <point x="880" y="1023" type="line"/>
      <point x="966" y="1023" type="line"/>
    </contour>
  </outline>
</glyph>
<glyph name="ezh.sc" format="1">
  <advance width="999"/>
  <outline>
    <contour>
      <point x="378" y="-10" type="curve"/>
      <point x="712" y="-10"/>
      <point x="924" y="184"/>
      <point x="928" y="442" type="curve"/>
      <point x="931" y="657"/>
      <point x="759" y="765"/>
      <point x="534" y="758" type="curve"/>
      <point x="494" y="695" type="line"/>
      <point x="960" y="1218" type="line"/>
      <point x="969" y="1292" type="line"/>
      <point x="227" y="1292" type="line"/>
      <point x="199" y="990" type="line"/>
      <point x="287" y="990" type="line"/>
      <point x="337" y="1178" type="line"/>
      <point x="788" y="1178" type="line"/>
      <point x="682" y="1052" type="line"/>
      <point x="354" y="672" type="line"/>
      <point x="385" y="634" type="line"/>
      <point x="420" y="646"/>
      <point x="454" y="656"/>
      <point x="506" y="656" type="curve"/>
      <point x="670" y="653"/>
      <point x="766" y="570"/>
      <point x="764" y="424" type="curve"/>
      <point x="761" y="253"/>
      <point x="644" y="80"/>
      <point x="405" y="80" type="curve"/>
      <point x="265" y="80"/>
      <point x="197" y="120"/>
      <point x="197" y="128" type="curve"/>
      <point x="187" y="342" type="line"/>
      <point x="108" y="342" type="line"/>
      <point x="58" y="52" type="line" smooth="yes"/>
      <point x="63" y="50"/>
      <point x="226" y="-10"/>
    </contour>
  </outline>
</glyph>
<glyph name="f.sc" format="1">
  <advance width="980"/>
  <outline>
    <contour>
      <point x="626" y="1292" type="move" name="top"/>
    </contour>
    <contour>
      <point x="15" y="62" type="line"/>
      <point x="8" y="0" type="line"/>
      <point x="489" y="0" type="line"/>
      <point x="495" y="62" type="line"/>
      <point x="293" y="86" type="line"/>
      <point x="364" y="618" type="line"/>
      <point x="785" y="603" type="line"/>
      <point x="797" y="722" type="line"/>
      <point x="379" y="715" type="line"/>
      <point x="446" y="1214" type="line"/>
      <point x="872" y="1202" type="line"/>
      <point x="889" y="1022" type="line"/>
      <point x="985" y="1022" type="line"/>
      <point x="1007" y="1292" type="line"/>
      <point x="186" y="1292" type="line"/>
      <point x="177" y="1222" type="line"/>
      <point x="292" y="1204" type="line"/>
      <point x="139" y="84" type="line"/>
    </contour>
  </outline>
</glyph>
<glyph name="g.sc" format="1">
  <advance width="1139"/>
  <outline>
    <contour>
      <point x="712" y="1292" type="move" name="top"/>
    </contour>
    <contour>
      <point x="568" y="0" type="move" name="bottom"/>
    </contour>
    <contour>
      <point x="516" y="-14" type="curve"/>
      <point x="651" y="-14"/>
      <point x="769" y="25"/>
      <point x="855" y="51" type="curve"/>
      <point x="900" y="65"/>
      <point x="939" y="76"/>
      <point x="971" y="79" type="curve"/>
      <point x="1049" y="618" type="line"/>
      <point x="666" y="618" type="line"/>
      <point x="657" y="534" type="line"/>
      <point x="879" y="520" type="line"/>
      <point x="828" y="150" type="line"/>
      <point x="765" y="96"/>
      <point x="647" y="72"/>
      <point x="555" y="72" type="curve"/>
      <point x="341" y="72"/>
      <point x="249" y="306"/>
      <point x="246" y="550" type="curve"/>
      <point x="246" y="856"/>
      <point x="389" y="1224"/>
      <point x="703" y="1224" type="curve"/>
      <point x="825" y="1224"/>
      <point x="888" y="1202"/>
      <point x="937" y="1169" type="curve"/>
      <point x="940" y="994" type="line"/>
      <point x="1039" y="994" type="line"/>
      <point x="1089" y="1250" type="line"/>
      <point x="1022" y="1250"/>
      <point x="948" y="1306"/>
      <point x="716" y="1306" type="curve"/>
      <point x="365" y="1306"/>
      <point x="81" y="998"/>
      <point x="86" y="532" type="curve"/>
      <point x="89" y="266"/>
      <point x="213" y="-14"/>
    </contour>
  </outline>
</glyph>
<glyph name="germandbls.sc" format="1">
  <advance width="1191"/>
  <outline>
    <contour>
      <point x="719" y="-18" type="curve"/>
      <point x="962" y="-18"/>
      <point x="1092" y="211"/>
      <point x="1098" y="396" type="curve"/>
      <point x="1107" y="666"/>
      <point x="905" y="761"/>
      <point x="767" y="758" type="curve"/>
      <point x="1058" y="1113" type="line"/>
      <point x="1080" y="1201" type="line"/>
      <point x="1021" y="1247"/>
      <point x="936" y="1301"/>
      <point x="738" y="1301" type="curve"/>
      <point x="439" y="1301"/>
      <point x="248" y="1060"/>
      <point x="205" y="775" type="curve"/>
      <point x="109" y="92" type="line"/>
      <point x="4" y="73" type="line"/>
      <point x="-1" y="0" type="line"/>
      <point x="253" y="0" type="line"/>
      <point x="353" y="711" type="line" smooth="yes"/>
      <point x="400" y="1068"/>
      <point x="515" y="1221"/>
      <point x="710" y="1221" type="curve"/>
      <point x="855" y="1219"/>
      <point x="935" y="1172"/>
      <point x="955" y="1130" type="curve"/>
      <point x="669" y="774" type="line"/>
      <point x="659" y="704" type="line"/>
      <point x="805" y="709"/>
      <point x="957" y="620"/>
      <point x="950" y="387" type="curve"/>
      <point x="944" y="199"/>
      <point x="853" y="63"/>
      <point x="734" y="63" type="curve"/>
      <point x="652" y="63"/>
      <point x="576" y="96"/>
      <point x="557" y="131" type="curve"/>
      <point x="545" y="273" type="line"/>
      <point x="458" y="273" type="line"/>
      <point x="424" y="54" type="line"/>
      <point x="471" y="48"/>
      <point x="563" y="-18"/>
    </contour>
  </outline>
</glyph>
<glyph name="h.sc" format="1">
  <advance width="1289"/>
  <outline>
    <contour>
      <point x="747" y="1292" type="move" name="top"/>
    </contour>
    <contour>
      <point x="583" y="0" type="move" name="bottom"/>
    </contour>
    <contour>
      <point x="16" y="62" type="line"/>
      <point x="8" y="0" type="line"/>
      <point x="415" y="0" type="line"/>
      <point x="423" y="62" type="line"/>
      <point x="291" y="84" type="line"/>
      <point x="443" y="1204" type="line"/>
      <point x="571" y="1222" type="line"/>
      <point x="580" y="1292" type="line"/>
      <point x="182" y="1292" type="line"/>
      <point x="173" y="1222" type="line"/>
      <point x="289" y="1204" type="line"/>
      <point x="137" y="84" type="line"/>
    </contour>
    <contour>
      <point x="325" y="705" type="line"/>
      <point x="323" y="613" type="line"/>
      <point x="992" y="613" type="line"/>
      <point x="994" y="705" type="line"/>
    </contour>
    <contour>
      <point x="731" y="62" type="line"/>
      <point x="728" y="0" type="line"/>
      <point x="1138" y="0" type="line"/>
      <point x="1148" y="62" type="line"/>
      <point x="1021" y="84" type="line"/>
      <point x="1173" y="1204" type="line"/>
      <point x="1292" y="1222" type="line"/>
      <point x="1301" y="1292" type="line"/>
      <point x="902" y="1292" type="line"/>
      <point x="893" y="1222" type="line"/>
      <point x="1019" y="1204" type="line"/>
      <point x="868" y="84" type="line"/>
    </contour>
  </outline>
</glyph>
<glyph name="i.sc" format="1">
  <advance width="592"/>
  <outline>
    <contour>
      <point x="412" y="1383" type="move" name="top"/>
    </contour>
    <contour>
      <point x="317" y="0" type="move" name="ogonek"/>
    </contour>
    <contour>
      <point x="229" y="0" type="move" name="bottom"/>
    </contour>
    <contour>
      <point x="27" y="62" type="line"/>
      <point x="20" y="0" type="line"/>
      <point x="432" y="0" type="line"/>
      <point x="438" y="62" type="line"/>
      <point x="304" y="88" type="line"/>
      <point x="456" y="1204" type="line"/>
      <point x="585" y="1222" type="line"/>
      <point x="594" y="1292" type="line"/>
      <point x="198" y="1292" type="line"/>
      <point x="188" y="1222" type="line"/>
      <point x="304" y="1204" type="line"/>
      <point x="152" y="88" type="line"/>
    </contour>
  </outline>
</glyph>
<glyph name="j.sc" format="1">
  <advance width="591"/>
  <outline>
    <contour>
      <point x="227" y="-142" type="move" name="btm"/>
    </contour>
    <contour>
      <point x="403" y="1292" type="move" name="top"/>
    </contour>
    <contour>
      <point x="465" y="1206" type="curve"/>
      <point x="605" y="1222" type="line"/>
      <point x="614" y="1292" type="line"/>
      <point x="188" y="1292" type="line"/>
      <point x="179" y="1222" type="line"/>
      <point x="316" y="1206" type="line"/>
      <point x="271" y="833"/>
      <point x="215" y="407"/>
      <point x="169" y="131" type="curve"/>
      <point x="147" y="-4"/>
      <point x="50" y="-179"/>
      <point x="-133" y="-231" type="curve"/>
      <point x="-106" y="-292" type="line"/>
      <point x="92" y="-257"/>
      <point x="261" y="-124"/>
      <point x="307" y="107" type="curve"/>
      <point x="323" y="191"/>
      <point x="398" y="717"/>
    </contour>
  </outline>
</glyph>
<glyph name="k.sc" format="1">
  <advance width="1153"/>
  <outline>
    <contour>
      <point x="699" y="1292" type="move" name="top"/>
    </contour>
    <contour>
      <point x="559" y="0" type="move" name="bottom"/>
    </contour>
    <contour>
      <point x="15" y="62" type="line"/>
      <point x="6" y="0" type="line"/>
      <point x="415" y="0" type="line"/>
      <point x="421" y="62" type="line"/>
      <point x="289" y="84" type="line"/>
      <point x="445" y="1204" type="line"/>
      <point x="573" y="1222" type="line"/>
      <point x="581" y="1292" type="line"/>
      <point x="185" y="1292" type="line"/>
      <point x="177" y="1222" type="line"/>
      <point x="291" y="1204" type="line"/>
      <point x="137" y="84" type="line"/>
    </contour>
    <contour>
      <point x="332" y="532" type="line"/>
      <point x="326" y="405" type="line"/>
      <point x="536" y="628" type="line"/>
      <point x="597" y="687" type="line"/>
      <point x="1075" y="1206" type="line"/>
      <point x="1175" y="1222" type="line"/>
      <point x="1185" y="1292" type="line"/>
      <point x="830" y="1292" type="line"/>
      <point x="820" y="1222" type="line"/>
      <point x="939" y="1204" type="line"/>
    </contour>
    <contour>
      <point x="860" y="0" type="curve"/>
      <point x="1087" y="0" type="line"/>
      <point x="1098" y="68" type="line"/>
      <point x="988" y="97" type="line"/>
      <point x="950" y="118"/>
      <point x="922" y="167"/>
      <point x="813" y="355" type="curve"/>
      <point x="766" y="435"/>
      <point x="644" y="660"/>
      <point x="594" y="738" type="curve"/>
      <point x="496" y="642" type="line"/>
      <point x="557" y="526"/>
      <point x="628" y="396"/>
      <point x="684" y="291" type="curve"/>
      <point x="748" y="168"/>
      <point x="829" y="0"/>
    </contour>
  </outline>
</glyph>
<glyph name="l.sc" format="1">
  <advance width="992"/>
  <outline>
    <contour>
      <point x="717" y="966" type="move" name="car"/>
    </contour>
    <contour>
      <point x="393" y="1292" type="move" name="top"/>
    </contour>
    <contour>
      <point x="461" y="0" type="move" name="bottom"/>
    </contour>
    <contour>
      <point x="14" y="62" type="line"/>
      <point x="6" y="0" type="line"/>
      <point x="838" y="0" type="line"/>
      <point x="922" y="380" type="line"/>
      <point x="836" y="395" type="line"/>
      <point x="717" y="91" type="line"/>
      <point x="287" y="84" type="line"/>
      <point x="441" y="1204" type="line"/>
      <point x="588" y="1222" type="line"/>
      <point x="596" y="1292" type="line"/>
      <point x="182" y="1292" type="line"/>
      <point x="173" y="1222" type="line"/>
      <point x="287" y="1204" type="line"/>
      <point x="135" y="84" type="line"/>
    </contour>
  </outline>
</glyph>
<glyph name="m.sc" format="1">
  <advance width="1589"/>
  <outline>
    <contour>
      <point x="896" y="1292" type="move" name="top"/>
    </contour>
    <contour>
      <point x="702" y="0" type="move" name="bottom"/>
    </contour>
    <contour>
      <point x="-20" y="62" type="line"/>
      <point x="-27" y="0" type="line"/>
      <point x="404" y="0" type="line"/>
      <point x="408" y="62" type="line"/>
      <point x="240" y="84" type="line"/>
      <point x="407" y="876" type="line"/>
      <point x="479" y="1216" type="line"/>
      <point x="533" y="882" type="line"/>
      <point x="674" y="-16" type="line"/>
      <point x="757" y="-4" type="line"/>
      <point x="1162" y="904" type="line"/>
      <point x="1292" y="1218" type="line"/>
      <point x="1268" y="862" type="line"/>
      <point x="1229" y="82" type="line"/>
      <point x="1074" y="64" type="line"/>
      <point x="1068" y="0" type="line"/>
      <point x="1518" y="0" type="line"/>
      <point x="1523" y="62" type="line"/>
      <point x="1380" y="84" type="line"/>
      <point x="1416" y="1204" type="line"/>
      <point x="1567" y="1222" type="line"/>
      <point x="1575" y="1292" type="line"/>
      <point x="1230" y="1292" type="line"/>
      <point x="849" y="370" type="line"/>
      <point x="765" y="173" type="line"/>
      <point x="738" y="416" type="line"/>
      <point x="607" y="1292" type="line"/>
      <point x="237" y="1292" type="line"/>
      <point x="227" y="1222" type="line"/>
      <point x="383" y="1204" type="line"/>
      <point x="123" y="84" type="line"/>
    </contour>
  </outline>
</glyph>
<glyph name="n.sc" format="1">
  <advance width="1274"/>
  <outline>
    <contour>
      <point x="723" y="1292" type="move" name="top"/>
    </contour>
    <contour>
      <point x="605" y="0" type="move" name="bottom"/>
    </contour>
    <contour>
      <point x="14" y="62" type="line"/>
      <point x="6" y="0" type="line"/>
      <point x="394" y="0" type="line"/>
      <point x="402" y="62" type="line"/>
      <point x="255" y="84" type="line"/>
      <point x="392" y="1220" type="line"/>
      <point x="359" y="1216" type="line"/>
      <point x="447" y="957" type="line"/>
      <point x="849" y="0" type="line"/>
      <point x="1002" y="0" type="line"/>
      <point x="1176" y="1204" type="line"/>
      <point x="1301" y="1222" type="line"/>
      <point x="1306" y="1292" type="line"/>
      <point x="936" y="1292" type="line"/>
      <point x="928" y="1222" type="line"/>
      <point x="1063" y="1206" type="line"/>
      <point x="919" y="70" type="line"/>
      <point x="953" y="74" type="line"/>
      <point x="862" y="337" type="line"/>
      <point x="467" y="1292" type="line"/>
      <point x="184" y="1292" type="line"/>
      <point x="172" y="1222" type="line"/>
      <point x="288" y="1204" type="line"/>
      <point x="136" y="82" type="line"/>
    </contour>
  </outline>
</glyph>
<glyph name="o.sc" format="1">
  <advance width="1170"/>
  <outline>
    <contour>
      <point x="149" y="1292" type="move" name="topleft"/>
    </contour>
    <contour>
      <point x="608" y="648" type="move" name="center"/>
    </contour>
    <contour>
      <point x="515" y="0" type="move" name="bottom"/>
    </contour>
    <contour>
      <point x="685" y="1292" type="move" name="top"/>
    </contour>
    <contour>
      <point x="916" y="1232" type="move" name="topright"/>
    </contour>
    <contour>
      <point x="676" y="18" type="move" name="ogonek"/>
    </contour>
    <contour>
      <point x="514" y="-18" type="curve"/>
      <point x="871" y="-18"/>
      <point x="1107" y="328"/>
      <point x="1102" y="772" type="curve"/>
      <point x="1098" y="1105"/>
      <point x="942" y="1310"/>
      <point x="679" y="1310" type="curve"/>
      <point x="330" y="1310"/>
      <point x="82" y="972"/>
      <point x="86" y="528" type="curve"/>
      <point x="89" y="216"/>
      <point x="234" y="-18"/>
    </contour>
    <contour>
      <point x="533" y="68" type="curve"/>
      <point x="348" y="68"/>
      <point x="245" y="270"/>
      <point x="243" y="546" type="curve"/>
      <point x="241" y="934"/>
      <point x="418" y="1222"/>
      <point x="658" y="1222" type="curve"/>
      <point x="841" y="1222"/>
      <point x="938" y="1036"/>
      <point x="941" y="740" type="curve"/>
      <point x="945" y="356"/>
      <point x="766" y="68"/>
    </contour>
  </outline>
</glyph>
<glyph name="oe.sc" format="1">
  <advance width="1813"/>
  <outline>
    <contour>
      <point x="523" y="-18" type="curve"/>
      <point x="706" y="-18"/>
      <point x="859" y="86"/>
      <point x="958" y="247" type="curve"/>
      <point x="929" y="0" type="line"/>
      <point x="1677" y="0" type="line"/>
      <point x="1736" y="270" type="line"/>
      <point x="1651" y="290" type="line"/>
      <point x="1570" y="102" type="line"/>
      <point x="1075" y="87" type="line"/>
      <point x="1143" y="624" type="line"/>
      <point x="1526" y="611" type="line"/>
      <point x="1540" y="734" type="line"/>
      <point x="1152" y="713" type="line"/>
      <point x="1217" y="1216" type="line"/>
      <point x="1617" y="1204" type="line"/>
      <point x="1647" y="1036" type="line"/>
      <point x="1733" y="1036" type="line"/>
      <point x="1742" y="1292" type="line"/>
      <point x="1087" y="1292" type="line"/>
      <point x="1052" y="1013" type="line"/>
      <point x="996" y="1191"/>
      <point x="873" y="1308"/>
      <point x="685" y="1308" type="curve"/>
      <point x="340" y="1308"/>
      <point x="80" y="978"/>
      <point x="86" y="528" type="curve"/>
      <point x="89" y="179"/>
      <point x="262" y="-18"/>
    </contour>
    <contour>
      <point x="543" y="69" type="curve"/>
      <point x="336" y="69"/>
      <point x="245" y="278"/>
      <point x="243" y="583" type="curve"/>
      <point x="242" y="942"/>
      <point x="426" y="1220"/>
      <point x="666" y="1220" type="curve"/>
      <point x="851" y="1220"/>
      <point x="951" y="1069"/>
      <point x="953" y="744" type="curve"/>
      <point x="956" y="356"/>
      <point x="786" y="69"/>
    </contour>
  </outline>
</glyph>
<glyph name="p.sc" format="1">
  <advance width="1022"/>
  <outline>
    <contour>
      <point x="641" y="1292" type="move" name="top"/>
    </contour>
    <contour>
      <point x="14" y="62" type="line"/>
      <point x="8" y="0" type="line"/>
      <point x="449" y="0" type="line"/>
      <point x="457" y="62" type="line"/>
      <point x="292" y="84" type="line"/>
      <point x="456" y="1281" type="line"/>
      <point x="412" y="1203" type="line"/>
      <point x="445" y="1210"/>
      <point x="558" y="1224"/>
      <point x="601" y="1224" type="curve"/>
      <point x="773" y="1224"/>
      <point x="851" y="1146"/>
      <point x="849" y="965" type="curve"/>
      <point x="844" y="694"/>
      <point x="731" y="546"/>
      <point x="492" y="546" type="curve"/>
      <point x="446" y="546"/>
      <point x="401" y="550"/>
      <point x="342" y="560" type="curve"/>
      <point x="314" y="466" type="line"/>
      <point x="370" y="464"/>
      <point x="421" y="460"/>
      <point x="485" y="460" type="curve"/>
      <point x="777" y="460"/>
      <point x="1006" y="641"/>
      <point x="1010" y="973" type="curve"/>
      <point x="1013" y="1199"/>
      <point x="875" y="1306"/>
      <point x="626" y="1306" type="curve"/>
      <point x="538" y="1306"/>
      <point x="479" y="1292"/>
      <point x="388" y="1292" type="curve"/>
      <point x="185" y="1292" type="line"/>
      <point x="178" y="1222" type="line"/>
      <point x="292" y="1204" type="line"/>
      <point x="138" y="84" type="line"/>
    </contour>
  </outline>
</glyph>
<glyph name="q.sc" format="1">
  <advance width="1166"/>
  <outline>
    <contour>
      <point x="774" y="-312" type="curve"/>
      <point x="878" y="-312"/>
      <point x="976" y="-272"/>
      <point x="1018" y="-238" type="curve"/>
      <point x="1016" y="-138" type="line"/>
      <point x="966" y="-162"/>
      <point x="883" y="-180"/>
      <point x="823" y="-180" type="curve"/>
      <point x="699" y="-180"/>
      <point x="579" y="-157"/>
      <point x="578" y="-9" type="curve"/>
      <point x="485" y="-13" type="line"/>
      <point x="472" y="-93"/>
      <point x="487" y="-159"/>
      <point x="522" y="-207" type="curve"/>
      <point x="574" y="-277"/>
      <point x="668" y="-312"/>
    </contour>
    <contour>
      <point x="514" y="-18" type="curve"/>
      <point x="871" y="-18"/>
      <point x="1107" y="328"/>
      <point x="1102" y="772" type="curve"/>
      <point x="1098" y="1105"/>
      <point x="942" y="1310"/>
      <point x="679" y="1310" type="curve"/>
      <point x="330" y="1310"/>
      <point x="82" y="972"/>
      <point x="86" y="528" type="curve"/>
      <point x="89" y="216"/>
      <point x="234" y="-18"/>
    </contour>
    <contour>
      <point x="533" y="68" type="curve"/>
      <point x="348" y="68"/>
      <point x="245" y="270"/>
      <point x="243" y="546" type="curve"/>
      <point x="241" y="934"/>
      <point x="418" y="1222"/>
      <point x="658" y="1222" type="curve"/>
      <point x="841" y="1222"/>
      <point x="938" y="1036"/>
      <point x="941" y="740" type="curve"/>
      <point x="945" y="356"/>
      <point x="766" y="68"/>
    </contour>
  </outline>
</glyph>
<glyph name="r.sc" format="1">
  <advance width="1125"/>
  <outline>
    <contour>
      <point x="646" y="1292" type="move" name="top"/>
    </contour>
    <contour>
      <point x="572" y="0" type="move" name="bottom"/>
    </contour>
    <contour>
      <point x="19" y="62" type="line"/>
      <point x="15" y="0" type="line"/>
      <point x="433" y="0" type="line"/>
      <point x="438" y="62" type="line"/>
      <point x="277" y="84" type="line"/>
      <point x="439" y="1282" type="line"/>
      <point x="386" y="1204" type="line"/>
      <point x="442" y="1213"/>
      <point x="530" y="1224"/>
      <point x="591" y="1224" type="curve"/>
      <point x="769" y="1224"/>
      <point x="844" y="1145"/>
      <point x="842" y="1005" type="curve"/>
      <point x="839" y="820"/>
      <point x="750" y="663"/>
      <point x="555" y="652" type="curve"/>
      <point x="478" y="653"/>
      <point x="402" y="653"/>
      <point x="325" y="654" type="curve"/>
      <point x="309" y="571" type="line"/>
      <point x="383" y="571"/>
      <point x="457" y="571"/>
      <point x="531" y="571" type="curve"/>
      <point x="602" y="569"/>
      <point x="678" y="374"/>
      <point x="746" y="205" type="curve"/>
      <point x="805" y="41"/>
      <point x="837" y="0"/>
      <point x="874" y="0" type="curve"/>
      <point x="1058" y="0" type="line"/>
      <point x="1062" y="70" type="line"/>
      <point x="949" y="70"/>
      <point x="945" y="99"/>
      <point x="861" y="290" type="curve"/>
      <point x="822" y="374"/>
      <point x="728" y="583"/>
      <point x="667" y="600" type="curve"/>
      <point x="635" y="576" type="line"/>
      <point x="870" y="618"/>
      <point x="990" y="789"/>
      <point x="994" y="1015" type="curve"/>
      <point x="997" y="1211"/>
      <point x="868" y="1306"/>
      <point x="621" y="1306" type="curve"/>
      <point x="531" y="1306"/>
      <point x="466" y="1292"/>
      <point x="391" y="1292" type="curve"/>
      <point x="182" y="1292" type="line"/>
      <point x="174" y="1222" type="line"/>
      <point x="286" y="1204" type="line"/>
      <point x="133" y="84" type="line"/>
    </contour>
  </outline>
</glyph>
<glyph name="s.sc" format="1">
  <advance width="919"/>
  <outline>
    <contour>
      <point x="569" y="1292" type="move" name="top"/>
    </contour>
    <contour>
      <point x="389" y="0" type="move" name="bottom"/>
    </contour>
    <contour>
      <point x="387" y="-20" type="curve"/>
      <point x="648" y="-20"/>
      <point x="821" y="135"/>
      <point x="825" y="364" type="curve"/>
      <point x="828" y="557"/>
      <point x="668" y="646"/>
      <point x="554" y="719" type="curve"/>
      <point x="430" y="795"/>
      <point x="310" y="855"/>
      <point x="312" y="1024" type="curve"/>
      <point x="315" y="1164"/>
      <point x="438" y="1223"/>
      <point x="556" y="1223" type="curve"/>
      <point x="652" y="1223"/>
      <point x="711" y="1197"/>
      <point x="745" y="1169" type="curve"/>
      <point x="756" y="1004" type="line"/>
      <point x="840" y="1004" type="line"/>
      <point x="879" y="1230" type="line"/>
      <point x="833" y="1262"/>
      <point x="731" y="1306"/>
      <point x="570" y="1306" type="curve"/>
      <point x="347" y="1306"/>
      <point x="170" y="1178"/>
      <point x="166" y="964" type="curve"/>
      <point x="163" y="753"/>
      <point x="333" y="662"/>
      <point x="455" y="588" type="curve"/>
      <point x="575" y="514"/>
      <point x="672" y="461"/>
      <point x="675" y="294" type="curve"/>
      <point x="667" y="136"/>
      <point x="524" y="64"/>
      <point x="389" y="64" type="curve"/>
      <point x="306" y="64"/>
      <point x="204" y="96"/>
      <point x="178" y="143" type="curve"/>
      <point x="168" y="322" type="line"/>
      <point x="77" y="322" type="line"/>
      <point x="40" y="81" type="line"/>
      <point x="80" y="44"/>
      <point x="227" y="-20"/>
    </contour>
  </outline>
</glyph>
<glyph name="schwa.sc" format="1">
  <advance width="1100"/>
  <outline>
    <contour>
      <point x="424" y="-20" type="curve"/>
      <point x="751" y="-20"/>
      <point x="1028" y="314"/>
      <point x="1035" y="772" type="curve"/>
      <point x="1041" y="1102"/>
      <point x="881" y="1306"/>
      <point x="624" y="1306" type="curve"/>
      <point x="381" y="1306"/>
      <point x="289" y="1242"/>
      <point x="195" y="1238" type="curve"/>
      <point x="156" y="988" type="line"/>
      <point x="238" y="988" type="line"/>
      <point x="293" y="1140" type="line"/>
      <point x="338" y="1180"/>
      <point x="434" y="1228"/>
      <point x="581" y="1228" type="curve"/>
      <point x="762" y="1228"/>
      <point x="885" y="1064"/>
      <point x="879" y="750" type="curve"/>
      <point x="879" y="718"/>
      <point x="876" y="686"/>
      <point x="874" y="655" type="curve"/>
      <point x="98" y="654" type="line"/>
      <point x="79" y="608"/>
      <point x="65" y="514"/>
      <point x="63" y="420" type="curve"/>
      <point x="59" y="138"/>
      <point x="193" y="-20"/>
    </contour>
    <contour>
      <point x="463" y="64" type="curve"/>
      <point x="293" y="64"/>
      <point x="211" y="220"/>
      <point x="214" y="392" type="curve"/>
      <point x="215" y="456"/>
      <point x="226" y="518"/>
      <point x="240" y="576" type="curve"/>
      <point x="864" y="576" type="line"/>
      <point x="816" y="232"/>
      <point x="655" y="64"/>
    </contour>
  </outline>
</glyph>
<glyph name="t.sc" format="1">
  <advance width="1070"/>
  <outline>
    <contour>
      <point x="632" y="1292" type="move" name="top"/>
    </contour>
    <contour>
      <point x="464" y="0" type="move" name="bottom"/>
    </contour>
    <contour>
      <point x="189" y="67" type="line"/>
      <point x="185" y="0" type="line"/>
      <point x="755" y="0" type="line"/>
      <point x="760" y="67" type="line"/>
      <point x="548" y="82" type="line"/>
      <point x="702" y="1216" type="line"/>
      <point x="994" y="1202" type="line"/>
      <point x="984" y="898" type="line"/>
      <point x="1067" y="900" type="line"/>
      <point x="1122" y="1292" type="line"/>
      <point x="141" y="1292" type="line"/>
      <point x="78" y="900" type="line"/>
      <point x="165" y="900" type="line"/>
      <point x="247" y="1202" type="line"/>
      <point x="549" y="1216" type="line"/>
      <point x="396" y="82" type="line"/>
    </contour>
  </outline>
</glyph>
<glyph name="u.sc" format="1">
  <advance width="1167"/>
  <outline>
    <contour>
      <point x="669" y="1292" type="move" name="top"/>
    </contour>
    <contour>
      <point x="640" y="16" type="move" name="ogonek"/>
    </contour>
    <contour>
      <point x="1239" y="1292" type="move" name="topright"/>
    </contour>
    <contour>
      <point x="507" y="0" type="move" name="bottom"/>
    </contour>
    <contour>
      <point x="513" y="-18" type="curve"/>
      <point x="808" y="-18"/>
      <point x="967" y="134"/>
      <point x="1018" y="532" type="curve"/>
      <point x="1106" y="1206" type="line"/>
      <point x="1215" y="1222" type="line"/>
      <point x="1223" y="1292" type="line"/>
      <point x="881" y="1292" type="line"/>
      <point x="874" y="1222" type="line"/>
      <point x="989" y="1204" type="line"/>
      <point x="900" y="532" type="line" smooth="yes"/>
      <point x="862" y="244"/>
      <point x="765" y="62"/>
      <point x="538" y="62" type="curve"/>
      <point x="316" y="62"/>
      <point x="257" y="241"/>
      <point x="292" y="516" type="curve"/>
      <point x="383" y="1204" type="line"/>
      <point x="518" y="1222" type="line"/>
      <point x="525" y="1292" type="line"/>
      <point x="120" y="1292" type="line"/>
      <point x="113" y="1222" type="line"/>
      <point x="229" y="1206" type="line"/>
      <point x="138" y="504" type="line" smooth="yes"/>
      <point x="95" y="177"/>
      <point x="224" y="-18"/>
    </contour>
  </outline>
</glyph>
<glyph name="v.sc" format="1">
  <advance width="1018"/>
  <outline>
    <contour>
      <point x="680" y="1444" type="move" name="top"/>
    </contour>
    <contour>
      <point x="161" y="1204" type="line"/>
      <point x="357" y="-16" type="line"/>
      <point x="492" y="-8" type="line"/>
      <point x="1037" y="1206" type="line"/>
      <point x="1139" y="1222" type="line"/>
      <point x="1147" y="1292" type="line"/>
      <point x="797" y="1292" type="line"/>
      <point x="791" y="1222" type="line"/>
      <point x="920" y="1204" type="line"/>
      <point x="563" y="389" type="line"/>
      <point x="435" y="68" type="line"/>
      <point x="473" y="64" type="line"/>
      <point x="430" y="389" type="line"/>
      <point x="315" y="1204" type="line"/>
      <point x="464" y="1222" type="line"/>
      <point x="472" y="1292" type="line"/>
      <point x="51" y="1292" type="line"/>
      <point x="44" y="1222" type="line"/>
    </contour>
  </outline>
</glyph>
<glyph name="w.sc" format="1">
  <advance width="1521"/>
  <outline>
    <contour>
      <point x="880" y="1292" type="move" name="top"/>
    </contour>
    <contour>
      <point x="695" y="0" type="move" name="bottom"/>
    </contour>
    <contour>
      <point x="145" y="1204" type="line"/>
      <point x="311" y="-8" type="line"/>
      <point x="459" y="-8" type="line"/>
      <point x="849" y="975" type="line"/>
      <point x="823" y="1169" type="line"/>
      <point x="496" y="332" type="line"/>
      <point x="399" y="69" type="line"/>
      <point x="436" y="66" type="line"/>
      <point x="394" y="376" type="line"/>
      <point x="293" y="1206" type="line"/>
      <point x="442" y="1222" type="line"/>
      <point x="447" y="1292" type="line"/>
      <point x="33" y="1292" type="line"/>
      <point x="26" y="1222" type="line"/>
    </contour>
    <contour>
      <point x="772" y="1206" type="line"/>
      <point x="899" y="-8" type="line"/>
      <point x="1048" y="-8" type="line"/>
      <point x="1572" y="1204" type="line"/>
      <point x="1691" y="1222" type="line"/>
      <point x="1701" y="1292" type="line"/>
      <point x="1329" y="1292" type="line"/>
      <point x="1322" y="1222" type="line"/>
      <point x="1455" y="1204" type="line"/>
      <point x="1102" y="350" type="line"/>
      <point x="991" y="70" type="line"/>
      <point x="1024" y="66" type="line"/>
      <point x="1003" y="376" type="line"/>
      <point x="925" y="1206" type="line"/>
      <point x="1071" y="1222" type="line"/>
      <point x="1084" y="1292" type="line"/>
      <point x="663" y="1292" type="line"/>
      <point x="655" y="1222" type="line"/>
    </contour>
  </outline>
</glyph>
<glyph name="x.sc" format="1">
  <advance width="1126"/>
  <outline>
    <contour>
      <point x="-32" y="62" type="line"/>
      <point x="-39" y="0" type="line"/>
      <point x="358" y="0" type="line"/>
      <point x="365" y="62" type="line"/>
      <point x="218" y="84" type="line"/>
      <point x="545" y="560" type="line"/>
      <point x="652" y="660" type="line"/>
      <point x="1055" y="1206" type="line"/>
      <point x="1176" y="1222" type="line"/>
      <point x="1181" y="1292" type="line"/>
      <point x="788" y="1292" type="line"/>
      <point x="781" y="1222" type="line"/>
      <point x="919" y="1204" type="line"/>
      <point x="608" y="748" type="line"/>
      <point x="503" y="652" type="line"/>
      <point x="79" y="82" type="line"/>
    </contour>
    <contour>
      <point x="606" y="62" type="line"/>
      <point x="601" y="0" type="line"/>
      <point x="1059" y="0" type="line"/>
      <point x="1062" y="62" type="line"/>
      <point x="930" y="84" type="line"/>
      <point x="652" y="660" type="line"/>
      <point x="608" y="748" type="line"/>
      <point x="425" y="1206" type="line"/>
      <point x="566" y="1222" type="line"/>
      <point x="573" y="1292" type="line"/>
      <point x="134" y="1292" type="line"/>
      <point x="126" y="1222" type="line"/>
      <point x="249" y="1202" type="line"/>
      <point x="503" y="652" type="line"/>
      <point x="545" y="560" type="line"/>
      <point x="751" y="82" type="line"/>
    </contour>
  </outline>
</glyph>
<glyph name="y.sc" format="1">
  <advance width="1005"/>
  <outline>
    <contour>
      <point x="150" y="1292" type="move" name="topleft"/>
    </contour>
    <contour>
      <point x="622" y="1292" type="move" name="top"/>
    </contour>
    <contour>
      <point x="458" y="0" type="move" name="bottom"/>
    </contour>
    <contour>
      <point x="201" y="62" type="line"/>
      <point x="196" y="0" type="line"/>
      <point x="725" y="0" type="line"/>
      <point x="731" y="62" type="line"/>
      <point x="543" y="84" type="line"/>
      <point x="608" y="569" type="line"/>
      <point x="558" y="442" type="line"/>
      <point x="1024" y="1206" type="line"/>
      <point x="1120" y="1222" type="line"/>
      <point x="1126" y="1292" type="line"/>
      <point x="777" y="1292" type="line"/>
      <point x="767" y="1222" type="line"/>
      <point x="898" y="1204" type="line"/>
      <point x="617" y="704" type="line"/>
      <point x="513" y="531" type="line"/>
      <point x="576" y="525" type="line"/>
      <point x="512" y="706" type="line"/>
      <point x="321" y="1204" type="line"/>
      <point x="475" y="1222" type="line"/>
      <point x="486" y="1292" type="line"/>
      <point x="56" y="1292" type="line"/>
      <point x="50" y="1222" type="line"/>
      <point x="149" y="1204" type="line"/>
      <point x="478" y="438" type="line"/>
      <point x="458" y="569" type="line"/>
      <point x="396" y="84" type="line"/>
    </contour>
  </outline>
</glyph>
<glyph name="z.sc" format="1">
  <advance width="1007"/>
  <outline>
    <contour>
      <point x="592" y="1292" type="move" name="top"/>
    </contour>
    <contour>
      <point x="451" y="0" type="move" name="bottom"/>
    </contour>
    <contour>
      <point x="-2" y="64" type="line"/>
      <point x="16" y="0" type="line"/>
      <point x="874" y="0" type="line"/>
      <point x="952" y="308" type="line"/>
      <point x="864" y="332" type="line"/>
      <point x="755" y="96" type="line"/>
      <point x="180" y="78" type="line"/>
      <point x="298" y="230" type="line"/>
      <point x="1020" y="1232" type="line"/>
      <point x="1003" y="1292" type="line"/>
      <point x="207" y="1292" type="line"/>
      <point x="160" y="996" type="line"/>
      <point x="246" y="980" type="line"/>
      <point x="325" y="1204" type="line"/>
      <point x="847" y="1210" type="line"/>
      <point x="706" y="1042" type="line"/>
    </contour>
  </outline>
</glyph>
